# xmcd
#
# Track frame offsets: 
#        150
#        14039
#        30745
#        44296
#        56073
#        68835
#
# Disc length: 1154 seconds
#
# Revision: 0
# Processed by: cddbd v1.5.2PL0 Copyright (c) Steve Scherf et al.
# Submitted via: ExactAudioCopy v1.3
#
DISCID=50048006
DTITLE=小塵埃 - Recall A Little Bit
DYEAR=2018
DGENRE=Country
TTITLE0=阿花的故事
TTITLE1=小太陽
TTITLE2=哪兒
TTITLE3=仙樂處處飄
TTITLE4=如果一打
TTITLE5=生命有價
EXTD=
EXTT0=
EXTT1=
EXTT2=
EXTT3=
EXTT4=
EXTT5=
PLAYORDER=
